<svg width="284" height="53" viewBox="0 0 284 53" fill="none" xmlns="http://www.w3.org/2000/svg">
<path d="M260.825 2.39832C248.319 2.39832 238.234 12.4837 238.234 24.9895C238.234 37.4953 248.319 47.5806 260.825 47.5806C273.331 47.5806 283.416 37.4953 283.416 24.9895C283.416 12.0802 273.331 2.39832 260.825 2.39832Z" fill="url(#paint0_linear_14_338)"/>
<path d="M260.622 6.5058L266.309 17.873L279.309 19.9029L269.965 28.8343L271.997 41.4194L260.622 35.7358L249.247 41.4194L251.279 28.8343L242.341 19.9029L254.935 17.873L260.622 6.5058Z" fill="white"/>
<path d="M76.4619 45.7123C73.3697 48.1503 68.5908 49.0645 62.1253 49.0645H52.8487C51.4431 49.0645 50.3187 49.0645 48.632 49.0645C47.2265 49.0645 45.8209 48.7598 44.4154 48.455C43.0098 48.1503 41.6043 47.5408 40.4798 47.236C39.0743 46.6265 37.9498 45.7123 37.1065 44.7981C36.2632 43.8838 35.4198 42.3601 34.8576 40.8363C34.2954 39.3126 34.0143 37.4841 34.0143 35.0461V0.304749H42.4476V34.7414C42.4476 38.3983 45.5398 40.2268 52.0053 40.2268H63.5308C69.7153 40.2268 72.8075 38.3983 72.8075 34.7414V0.304749H81.2408V35.3508C80.9597 39.9221 79.5541 43.5791 76.4619 45.7123Z" fill="#0F0E0E"/>
<path d="M144.772 49.674V17.6754L126.499 46.9313C125.937 47.8456 125.094 48.7598 124.251 49.3693C123.407 49.9788 122.564 50.2835 121.44 50.2835C119.472 50.2835 117.785 49.3693 116.38 47.2361L98.1074 17.3707V49.674H89.6741V5.48548C89.6741 3.65699 90.2363 2.43799 91.0796 1.52374C91.923 0.609497 93.0474 0 94.4529 0C96.4207 0 98.1074 0.914247 99.2318 2.43799L122.002 37.7888L144.491 2.74274C145.615 0.914245 147.021 0 148.988 0C150.394 0 151.518 0.609497 152.362 1.52374C153.205 2.43799 153.767 3.96173 153.767 5.79023V49.3693H144.772V49.674Z" fill="#0F0E0E"/>
<path d="M161.638 49.3693V0.304749H170.072V49.3693H161.638Z" fill="#0F0E0E"/>
<path d="M227.418 49.674L220.39 36.2651H193.966L187.219 49.674H177.099L202.399 3.65698C203.524 1.52374 205.21 0.304749 207.178 0.304749C209.146 0.304749 210.833 1.52374 211.957 3.65698L236.695 49.674H227.418ZM207.178 12.4947L199.026 27.1226H215.33L207.178 12.4947Z" fill="#0F0E0E"/>
<path d="M25.581 27.4274C25.581 42.3601 20.521 48.7598 11.5255 50.893C2.8111 52.7215 0 52.7215 0 52.7215V42.6648C3.37332 42.3601 8.71441 41.7506 12.0877 40.5316C15.1799 39.3126 17.4288 35.9603 17.4288 27.4274L17.7099 9.44721V0.304749H26.1432L25.581 27.4274Z" fill="#0F0E0E"/>
<defs>
<linearGradient id="paint0_linear_14_338" x1="238.413" y1="24.7063" x2="283.416" y2="24.7063" gradientUnits="userSpaceOnUse">
<stop stop-color="#EB712A"/>
<stop offset="0.2311" stop-color="#EF8528"/>
<stop offset="0.4715" stop-color="#F29426"/>
<stop offset="0.6242" stop-color="#F39A24"/>
</linearGradient>
</defs>
</svg>
